{"title":"Real Detective - S01E01 - Redemption","uid":15884811,"size":1042343257,"categoryP":"video","categoryS":"tv_shows","magnet":"?xt=urn:btih:52adef6f2b6221e6e925d8077dba1c396de61e25&amp;dn=Real+Detective+-+S01E01+-+Redemption&amp;tr=udp%3A%2F%2Ftracker.leechers-paradise.org%3A6969&amp;tr=udp%3A%2F%2Fzer0day.ch%3A1337&amp;tr=udp%3A%2F%2Fopen.demonii.com%3A1337&amp;tr=udp%3A%2F%2Ftracker.coppersurfer.tk%3A6969&amp;tr=udp%3A%2F%2Fexodus.desync.com%3A6969","seeders":11,"leechers":4,"uploader":"Bullrout","files":1,"time":1474640513,"description":"Real Detective - S01E01 - Redemption\r\n\r\nThis program brings to life the most authentic, personal and riveting true crime stories. The detectives, the victims, the mysteries, the emotion and the grit of it all will captivate like no other.\r\n\r\nComplete name                            : Real Detective - S01E01 - Redemption.mkv\r\nFormat                                   : Matroska\r\nFormat version                           : Version 4 / Version 2\r\nFile size                                : 994 MiB\r\nDuration                                 : 41 min 55 s\r\nOverall bit rate mode                    : Variable\r\nOverall bit rate                         : 3 315 kb/s\r\nEncoded date                             : UTC 2016-09-16 06:30:32\r\nWriting application                      : mkvmerge v9.4.2 ('So High') 64bit\r\nWriting library                          : libebml v1.3.4 + libmatroska v1.4.5\r\n\r\nVideo\r\nID                                       : 2\r\nFormat                                   : AVC\r\nFormat/Info                              : Advanced Video Codec\r\nFormat profile                           :   \r\nFormat settings, CABAC                   : Yes\r\nFormat settings, ReFrames                : 3 frames\r\nCodec ID                                 : V_MPEG4/ISO/AVC\r\nDuration                                 : 41 min 55 s\r\nBit rate mode                            : Variable\r\nBit rate                                 : 2 930 kb/s\r\nMaximum bit rate                         : 3 000 kb/s\r\nWidth                                    : 1 280 pixels\r\nHeight                                   : 720 pixels\r\nDisplay aspect ratio                     : 16:9\r\nFrame rate mode                          : Constant\r\nFrame rate                               : 25.000 FPS\r\nStandard                                 : PAL\r\nColor space                              : YUV\r\nChroma subsampling                       : 4:2:0\r\nBit depth                                : 8 bits\r\nScan type                                : Progressive\r\nBits/(Pixel*Frame)                       : 0.127\r\nStream size                              : 878 MiB (88%)\r\nWriting library                          : x264 core 112\r\nDefault                                  : Yes\r\nForced                                   : No\r\nColor range                              : Limited\r\nColor primaries                          : BT.709\r\nTransfer characteristics                 : BT.709\r\nMatrix coefficients                      : BT.709\r\n\r\nAudio\r\nID                                       : 1\r\nFormat                                   : AC-3\r\nFormat/Info                              : Audio Coding 3\r\nMode extension                           : CM (complete main)\r\nFormat settings, Endianness              : Big\r\nCodec ID                                 : A_AC3\r\nDuration                                 : 41 min 55 s\r\nBit rate mode                            : Constant\r\nBit rate                                 : 384 kb/s\r\nChannel(s)                               : 6 channels\r\nChannel positions                        : Front: L C R, Side: L R, LFE\r\nSampling rate                            : 48.0 kHz\r\nFrame rate                               : 31.250 FPS (1536 spf)\r\nCompression mode                         : Lossy\r\nStream size                              : 115 MiB (12%)\r\nDefault                                  : Yes\r\nForced                                   : No","torrent":{"xt":"urn:btih:52adef6f2b6221e6e925d8077dba1c396de61e25","amp;dn":"Real+Detective+-+S01E01+-+Redemption","amp;tr":["udp%3A%2F%2Ftracker.leechers-paradise.org%3A6969","udp%3A%2F%2Fzer0day.ch%3A1337","udp%3A%2F%2Fopen.demonii.com%3A1337","udp%3A%2F%2Ftracker.coppersurfer.tk%3A6969","udp%3A%2F%2Fexodus.desync.com%3A6969"],"infoHash":"52adef6f2b6221e6e925d8077dba1c396de61e25","infoHashBuffer":{"type":"Buffer","data":[82,173,239,111,43,98,33,230,233,37,216,7,125,186,28,57,109,230,30,37]},"announce":[],"urlList":[]}}